#!OML:ASF F:\VICON\USERDATA\INSTALL\rory3\rory3.ASF
:FULLY-SPECIFIED
:DEGREES
1825
root 2.59272 14.6951 -0.34724 11.1312 -38.2663 9.14286
lowerback 30.1611 -5.45173 5.86599
upperback 5.20765 -4.51852 7.27532
thorax -9.80191 -2.32852 6.23124
lowerneck -1.58141 -12.2429 -17.7471
upperneck 12.8165 -16.1402 5.1904
head 6.03298 -8.41127 3.21631
rclavicle -1.59028e-014 3.33958e-014
rhumerus 61.7483 -54.5827 -82.3399
rradius 20.4474
rwrist -5.36596
rhand -10.7253 14.9864
rfingers 7.12502
rthumb 15.2851 -14.4288
lclavicle -1.59028e-014 3.33958e-014
lhumerus 64.8588 -6.00788 64.0612
lradius 22.974
lwrist 20.0092
lhand 0.951629 11.5331
lfingers 7.12502
lthumb 26.5015 39.6997
rfemur -57.7886 21.3364 -12.8285
rtibia 52.7812
rfoot -16.8488 2.23569
rtoes -24.3964
lfemur -42.2057 15.5291 -40.1896
ltibia 54.6677
lfoot -28.6839 14.044
ltoes -8.26064
1826
root 2.58194 14.6753 -0.376942 11.3944 -38.1695 9.02806
lowerback 30.1976 -5.43162 5.7505
upperback 5.36432 -4.55151 7.16995
thorax -9.642 -2.34394 6.18091
lowerneck -1.71051 -12.0948 -17.6302
upperneck 12.6207 -15.9085 5.1498
head 5.95188 -8.28986 3.21254
rclavicle -7.31528e-014 7.95139e-014
rhumerus 60.4767 -54.6885 -82.0068
rradius 20.3128
rwrist -5.14169
rhand -11.1841 15.1146
rfingers 7.12502
rthumb 14.8431 -14.3337
lclavicle -7.31528e-014 7.95139e-014
lhumerus 63.9612 -6.59315 64.4613
lradius 22.893
lwrist 19.9879
lhand 0.994222 11.429
lfingers 7.12502
lthumb 26.5423 39.5894
rfemur -58.218 21.1651 -12.6838
rtibia 53.0784
rfoot -17.2018 1.74146
rtoes -27.2695
lfemur -42.7688 15.4286 -40.0737
ltibia 55.136
lfoot -28.685 14.0622
ltoes -8.25121
1827
root 2.56972 14.6617 -0.406375 11.6779 -38.044 8.89025
lowerback 30.261 -5.40567 5.69418
upperback 5.48271 -4.55081 7.06641
thorax -9.54051 -2.34398 6.09448
lowerneck -1.8459 -11.9902 -17.6551
upperneck 12.4465 -15.742 5.23217
head 5.90817 -8.19973 3.25622
rclavicle 6.99722e-014 -6.20208e-014
rhumerus 59.6455 -54.9408 -82.1971
rradius 20.1193
rwrist -4.39481
rhand -11.315 15.0374
rfingers 7.12502
rthumb 14.717 -14.4203
lclavicle 6.99722e-014 -6.20208e-014
lhumerus 62.9668 -7.1897 65.0838
lradius 22.8208
lwrist 19.9476
lhand 1.00796 11.3192
lfingers 7.12502
lthumb 26.5555 39.4777
rfemur -58.6315 21.016 -12.5418
rtibia 53.3622
rfoot -17.3458 1.54575
rtoes -28.2596
lfemur -43.3135 15.2954 -39.9054
ltibia 55.5856
lfoot -28.7841 13.9338
ltoes -8.02273
1828
root 2.55568 14.6485 -0.43646 12.0072 -37.9275 8.68262
lowerback 30.3576 -5.32285 5.75552
upperback 5.54263 -4.43149 6.96397
thorax -9.52945 -2.29 5.91187
lowerneck -1.84663 -11.9549 -17.8042
upperneck 12.2503 -15.694 5.38877
head 5.86509 -8.16998 3.33441
rclavicle 5.88403e-014 -1.11319e-014
rhumerus 58.9095 -55.5035 -82.5239
rradius 19.934
rwrist -3.33871
rhand -10.9016 15.0421
rfingers 7.12502
rthumb 15.1153 -14.386
lclavicle 5.88403e-014 -1.11319e-014
lhumerus 61.9176 -8.04966 65.7775
lradius 22.8446
lwrist 20.0121
lhand 0.752726 11.3515
lfingers 7.12502
lthumb 26.3112 39.5467
rfemur -59.0564 20.9285 -12.3702
rtibia 53.6514
rfoot -17.358 1.43006
rtoes -28.3955
lfemur -43.8573 15.2527 -39.7021
ltibia 56.0311
lfoot -28.8447 13.8108
ltoes -8.08455
1829
root 2.54136 14.6328 -0.466063 12.168 -37.8454 8.68903
lowerback 30.4974 -5.20235 5.63764
upperback 5.56579 -4.31641 6.80767
thorax -9.57233 -2.23206 5.77342
lowerneck -1.70984 -11.9073 -17.5879
upperneck 11.9977 -15.6346 5.20034
head 5.72247 -8.13846 3.27018
rclavicle -6.36111e-015 4.77083e-014
rhumerus 56.4055 -55.7603 -80.941
rradius 19.9902
rwrist -3.20402
rhand -10.846 15.2021
rfingers 7.12502
rthumb 15.1688 -14.2219
lclavicle -6.36111e-015 4.77083e-014
lhumerus 60.7862 -8.92105 66.5599
lradius 22.8132
lwrist 19.9521
lhand 0.668623 11.3665
lfingers 7.12502
lthumb 26.2306 39.5736
rfemur -59.4452 20.7846 -12.3522
rtibia 53.952
rfoot -17.3642 1.47155
rtoes -28.0955
lfemur -44.3254 15.2222 -39.6857
ltibia 56.4467
lfoot -28.8315 13.8468
ltoes -8.55372
1830
root 2.5253 14.6188 -0.494769 12.3085 -37.7143 8.6682
lowerback 30.7664 -5.11977 5.58882
upperback 5.54262 -4.21662 6.58012
thorax -9.72501 -2.181 5.53968
lowerneck -1.67919 -11.854 -17.1393
upperneck 11.8536 -15.5591 4.96432
head 5.6075 -8.09196 3.1536
rclavicle 1.59028e-015 -3.18055e-015
rhumerus 53.591 -55.8978 -79.0502
rradius 19.9803
rwrist -3.20443
rhand -11.2227 15.2454
rfingers 7.12502
rthumb 14.8059 -14.2057
lclavicle 1.59028e-015 -3.18055e-015
lhumerus 59.7136 -9.81732 67.1274
lradius 22.6816
lwrist 19.8635
lhand 0.953739 11.3758
lfingers 7.12502
lthumb 26.5036 39.5421
rfemur -59.7538 20.633 -12.2617
rtibia 54.2495
rfoot -17.3951 1.4723
rtoes -27.9093
lfemur -44.7449 15.1855 -39.6138
ltibia 56.8675
lfoot -28.8179 13.8244
ltoes -8.83697
1831
root 2.50952 14.6046 -0.526533 12.5583 -37.5741 8.49762
lowerback 31.0096 -5.0397 5.68686
upperback 5.57504 -4.09035 6.28422
thorax -9.81398 -2.12283 5.13887
lowerneck -2.07428 -11.8006 -16.7234
upperneck 12.1178 -15.4428 4.94474
head 5.7077 -8.01655 3.07434
rclavicle 3.65764e-014 -6.99722e-014
rhumerus 51.3674 -56.2153 -77.9432
rradius 19.9282
rwrist -2.83796
rhand -11.5813 15.2621
rfingers 7.12502
rthumb 14.4604 -14.214
lclavicle 3.65764e-014 -6.99722e-014
lhumerus 58.7818 -10.8676 67.1102
lradius 22.7233
lwrist 20.0129
lhand 1.16149 11.452
lfingers 7.12502
lthumb 26.7024 39.5881
rfemur -60.1181 20.5467 -12.0756
rtibia 54.5457
rfoot -17.432 1.36393
rtoes -28.0251
lfemur -45.2341 15.1423 -39.4074
ltibia 57.3099
lfoot -28.7387 13.8839
ltoes -9.47745
